<?xml version="1.0" encoding="UTF-8" standalone="no"?>
<!DOCTYPE svg PUBLIC "-//W3C//DTD SVG 1.1//EN" "http://www.w3.org/Graphics/SVG/1.1/DTD/svg11.dtd">
<svg width="100%" height="100%" viewBox="0 0 128 128" version="1.1" xmlns="http://www.w3.org/2000/svg" xmlns:xlink="http://www.w3.org/1999/xlink" xml:space="preserve" xmlns:serif="http://www.serif.com/" style="fill-rule:evenodd;clip-rule:evenodd;stroke-linejoin:round;stroke-miterlimit:2;">
    <path d="M48.977,128L49.008,127.993L49.899,127.748L50.791,127.458L51.682,127.115L52.574,126.714L53.465,126.244L54.357,125.699L55.249,125.068L56.14,124.343L57.032,123.513L57.923,122.568L58.815,121.499L59.706,120.294L60.598,118.944L61.489,117.44L62.381,115.773L63.272,113.936L64.164,111.923L65.055,109.73L65.947,107.354L66.839,104.795L67.73,102.057L68.622,99.143L69.513,96.063L70.405,92.829L71.296,89.455L72.188,85.959L73.079,82.364L73.971,78.694L74.862,74.977L75.754,71.244L76.645,67.528L77.537,63.864L78.429,60.289L79.32,56.84L80.212,53.555L81.103,50.471L81.995,47.624L82.886,45.049L83.778,42.776L84.669,40.836L85.561,39.252L86.452,38.046L87.344,37.233L88.235,36.824L89.127,36.824L90.018,37.233L90.91,38.046L91.802,39.252L92.693,40.836L93.585,42.776L94.476,45.049L95.368,47.624L96.259,50.471L97.151,53.555L98.042,56.84L98.934,60.289L99.825,63.864L100.717,67.528L101.608,71.244L102.5,74.977L103.392,78.694L104.283,82.364L105.175,85.959L106.066,89.455L106.958,92.829L107.849,96.063L108.741,99.143L109.632,102.057L110.524,104.795L111.415,107.354L112.307,109.73L113.198,111.923L114.09,113.936L114.981,115.773L115.873,117.44L116.765,118.944L117.656,120.294L118.548,121.499L119.439,122.568L120.331,123.513L121.222,124.343L122.114,125.068L123.005,125.699L123.897,126.244L124.788,126.714L125.68,127.115L126.571,127.458L127.463,127.748L128.355,127.993L128.386,128L48.977,128Z" style="fill:rgb(255,0,0);fill-rule:nonzero;"/>
    <path d="M-0.222,128L-0.027,127.951L0.865,127.692L1.756,127.39L2.648,127.04L3.539,126.636L4.431,126.17L5.323,125.637L6.214,125.027L7.106,124.334L7.997,123.549L8.889,122.662L9.78,121.665L10.672,120.548L11.563,119.302L12.455,117.918L13.346,116.386L14.238,114.697L15.129,112.844L16.021,110.818L16.913,108.612L17.804,106.222L18.696,103.642L19.587,100.87L20.479,97.905L21.37,94.746L22.262,91.398L23.153,87.866L24.045,84.156L24.936,80.28L25.828,76.25L26.719,72.081L27.611,67.792L28.502,63.403L29.394,58.938L30.286,54.424L31.177,49.886L32.069,45.357L32.96,40.867L33.852,36.45L34.743,32.14L35.635,27.97L36.526,23.976L37.418,20.192L38.309,16.652L39.201,13.387L40.092,10.428L40.984,7.802L41.876,5.535L42.767,3.649L43.659,2.162L44.55,1.089L45.442,0.441L46.333,0.224L47.225,0.441L48.116,1.089L49.008,2.162L49.899,3.649L50.791,5.535L51.682,7.802L52.574,10.428L53.465,13.387L54.357,16.652L55.249,20.192L56.14,23.976L57.032,27.97L57.923,32.14L58.815,36.45L59.706,40.867L60.598,45.357L61.489,49.886L62.381,54.424L63.272,58.938L64.164,63.403L65.055,67.792L65.947,72.081L66.839,76.25L67.73,80.28L68.622,84.156L69.513,87.866L70.405,91.398L71.296,94.746L72.188,97.905L73.079,100.87L73.971,103.642L74.862,106.222L75.754,108.612L76.645,110.818L77.537,112.844L78.429,114.697L79.32,116.386L80.212,117.918L81.103,119.302L81.995,120.548L82.886,121.665L83.778,122.662L84.669,123.549L85.561,124.334L86.452,125.027L87.344,125.637L88.235,126.17L89.127,126.636L90.018,127.04L90.91,127.39L91.802,127.692L92.693,127.951L92.888,128L-0.222,128Z" style="fill:rgb(0,0,255);fill-rule:nonzero;"/>
</svg>
