<?xml version="1.0" encoding="UTF-8" standalone="no"?>
<!DOCTYPE svg PUBLIC "-//W3C//DTD SVG 1.1//EN" "http://www.w3.org/Graphics/SVG/1.1/DTD/svg11.dtd">
<svg width="100%" height="100%" viewBox="0 0 128 128" version="1.1" xmlns="http://www.w3.org/2000/svg" xmlns:xlink="http://www.w3.org/1999/xlink" xml:space="preserve" xmlns:serif="http://www.serif.com/" style="fill-rule:evenodd;clip-rule:evenodd;stroke-linejoin:round;stroke-miterlimit:2;">
    <path d="M121.984,114.95L-0.252,114.486L0.591,114.389L1.434,114.274L2.277,114.139L3.12,113.979L3.963,113.792L4.806,113.573L5.649,113.318L6.492,113.023L7.335,112.682L8.178,112.289L9.021,111.839L9.864,111.325L10.707,110.741L11.55,110.078L12.393,109.33L13.236,108.489L14.079,107.547L14.922,106.496L15.765,105.328L16.608,104.036L17.451,102.612L18.294,101.049L19.137,99.34L19.98,97.48L20.823,95.463L21.666,93.287L22.509,90.949L23.352,88.448L24.195,85.784L25.038,82.96L25.881,79.981L26.724,76.852L27.567,73.582L28.41,70.183L29.253,66.666L30.096,63.048L30.939,59.347L31.782,55.581L32.625,51.773L33.468,47.946L34.311,44.125L35.154,40.338L35.997,36.613L36.84,32.977L37.683,29.46L38.526,26.091L39.369,22.9L40.212,19.913L41.055,17.16L41.898,14.663L42.741,12.449L43.584,10.536L44.427,8.945L45.27,7.691L46.113,6.786L46.956,6.24L47.799,6.057L48.642,6.24L49.485,6.786L50.328,7.691L51.171,8.945L52.014,10.536L52.857,12.449L53.7,14.663L54.543,17.16L55.386,19.913L56.229,22.9L57.072,26.091L57.915,29.46L58.758,32.977L59.601,36.613L60.444,40.338L61.287,44.125L62.13,47.946L62.973,51.773L63.816,55.581L64.659,59.347L65.502,63.048L66.345,66.666L67.188,70.183L68.032,73.582L68.875,76.852L69.718,79.981L70.561,82.96L71.404,85.784L72.247,88.448L73.09,90.949L73.933,93.287L74.776,95.463L75.619,97.48L76.462,99.34L77.305,101.049L78.148,102.612L78.991,104.036L79.834,105.328L80.677,106.496L81.52,107.547L82.363,108.489L83.206,109.33L84.049,110.078L84.892,110.741L85.735,111.325L86.578,111.839L87.421,112.289L88.264,112.682L89.107,113.023L89.95,113.318L90.793,113.573L91.636,113.792L92.479,113.979L93.322,114.139L94.165,114.274L95.008,114.389L95.851,114.486L96.694,114.568L97.537,114.636L98.38,114.693L99.223,114.74L100.066,114.779L100.909,114.812L101.752,114.838L102.595,114.86L103.438,114.878L104.281,114.892L105.124,114.904L105.967,114.913L106.81,114.921L107.653,114.927L108.496,114.932L109.339,114.936L110.182,114.939L111.025,114.941L111.868,114.943L112.711,114.945L113.554,114.946L114.397,114.947L115.24,114.947L116.083,114.948L116.926,114.948L117.769,114.949L118.612,114.949L119.455,114.949L120.298,114.949L121.141,114.949L121.984,114.95Z" style="fill:rgb(0,0,255);fill-opacity:0.2;fill-rule:nonzero;"/>
    <path d="M127.885,114.432L4.806,114.95L9.864,114.95L12.393,114.95L14.079,114.95L15.765,114.95L16.608,114.95L17.451,114.95L18.294,114.95L19.137,114.95L19.98,114.95L20.823,114.95L21.666,114.95L22.509,114.95L23.352,114.95L24.195,114.95L25.038,114.949L25.881,114.949L26.724,114.949L27.567,114.949L28.41,114.949L29.253,114.948L30.096,114.947L30.939,114.947L31.782,114.946L32.625,114.944L33.468,114.942L34.311,114.94L35.154,114.937L35.997,114.932L36.84,114.927L37.683,114.92L38.526,114.911L39.369,114.9L40.212,114.885L41.055,114.867L41.898,114.844L42.741,114.815L43.584,114.779L44.427,114.735L45.27,114.68L46.113,114.613L46.956,114.532L47.799,114.432L48.642,114.312L49.485,114.167L50.328,113.994L51.171,113.787L52.014,113.543L52.857,113.254L53.7,112.915L54.543,112.519L55.386,112.059L56.229,111.527L57.072,110.915L57.915,110.215L58.758,109.419L59.601,108.516L60.444,107.5L61.287,106.361L62.13,105.093L62.973,103.687L63.816,102.138L64.659,100.44L65.502,98.59L66.345,96.586L67.188,94.427L68.032,92.117L68.875,89.66L69.718,87.062L70.561,84.334L71.404,81.488L72.247,78.54L73.09,75.507L73.933,72.412L74.776,69.276L75.619,66.128L76.462,62.994L77.305,59.903L78.148,56.888L78.991,53.979L79.834,51.208L80.677,48.606L81.52,46.205L82.363,44.033L83.206,42.116L84.049,40.479L84.892,39.144L85.735,38.126L86.578,37.44L87.421,37.095L88.264,37.095L89.107,37.44L89.95,38.126L90.793,39.144L91.636,40.479L92.479,42.116L93.322,44.033L94.165,46.205L95.008,48.606L95.851,51.208L96.694,53.979L97.537,56.888L98.38,59.903L99.223,62.994L100.066,66.128L100.909,69.276L101.752,72.412L102.595,75.507L103.438,78.54L104.281,81.488L105.124,84.334L105.967,87.062L106.81,89.66L107.653,92.117L108.496,94.427L109.339,96.586L110.182,98.59L111.025,100.44L111.868,102.138L112.711,103.687L113.554,105.093L114.397,106.361L115.24,107.5L116.083,108.516L116.926,109.419L117.769,110.215L118.612,110.915L119.455,111.527L120.298,112.059L121.141,112.519L121.984,112.915L122.827,113.254L123.67,113.543L124.513,113.787L125.356,113.994L126.199,114.167L127.042,114.312L127.885,114.432Z" style="fill:rgb(255,0,0);fill-opacity:0.2;fill-rule:nonzero;"/>
    <path d="M-0.838,114.869L1.34,114.741C1.347,114.74 2.387,114.767 2.387,114.767C2.395,114.765 3.248,114.604 3.248,114.604C3.258,114.602 4.112,114.412 4.112,114.412C4.123,114.409 4.978,114.187 4.978,114.187C4.99,114.183 5.846,113.925 5.846,113.925C5.86,113.92 6.717,113.62 6.717,113.62C6.731,113.614 7.589,113.267 7.589,113.267L8.463,112.86L9.337,112.393L10.212,111.86L11.086,111.254L11.959,110.568L12.83,109.795L13.699,108.928L14.566,107.96L15.429,106.883L16.291,105.69C16.299,105.677 17.15,104.373 17.15,104.373C17.157,104.361 18.006,102.926 18.006,102.926C18.012,102.915 18.861,101.341 18.861,101.341C18.866,101.331 19.713,99.612 19.713,99.612C19.718,99.603 20.565,97.734 20.565,97.734C20.568,97.726 21.415,95.702 21.415,95.702C21.418,95.694 22.263,93.511 22.263,93.511C22.266,93.504 23.111,91.159 23.111,91.159C23.113,91.153 23.958,88.646 23.958,88.646C23.96,88.64 24.805,85.971 24.805,85.971C24.806,85.966 25.65,83.138 25.65,83.138C25.652,83.134 26.496,80.15 26.496,80.15C26.497,80.146 27.341,77.014 27.341,77.014C27.342,77.011 28.185,73.738 28.185,73.738C28.186,73.736 29.03,70.334 29.03,70.334C29.03,70.331 29.874,66.813 29.874,66.813C29.874,66.811 30.718,63.192 30.718,63.192C30.718,63.19 31.561,59.487 31.561,59.487C31.561,59.486 32.405,55.719 32.405,55.719C32.405,55.719 33.248,51.91 33.248,51.91C33.248,51.91 34.091,48.083 34.091,48.083C34.091,48.083 34.934,44.263 34.934,44.263C34.934,44.263 35.776,40.478 35.776,40.478C35.776,40.478 36.619,36.755 36.619,36.755C36.619,36.755 37.461,33.123 37.461,33.123C37.461,33.123 38.303,29.612 38.303,29.612C38.303,29.612 39.144,26.25 39.144,26.25C39.144,26.25 39.984,23.068 39.984,23.068C39.984,23.068 40.824,20.093 40.824,20.093C40.824,20.093 41.662,17.355 41.662,17.355C41.662,17.355 42.499,14.879 42.499,14.879C42.499,14.879 43.331,12.691 43.331,12.691C43.331,12.691 44.159,10.815 44.159,10.815C44.159,10.815 44.975,9.273 44.975,9.273C44.975,9.273 45.771,8.089 45.771,8.089C45.771,8.089 46.526,7.279 46.526,7.279C46.526,7.279 47.205,6.838 47.205,6.838C47.205,6.838 47.799,6.709 47.799,6.709C47.799,6.709 48.393,6.838 48.393,6.838C48.393,6.838 49.072,7.279 49.072,7.279C49.072,7.279 49.827,8.089 49.827,8.089C49.827,8.089 50.623,9.273 50.623,9.273C50.623,9.273 51.44,10.815 51.44,10.815C51.44,10.815 52.267,12.691 52.267,12.691C52.267,12.691 53.1,14.879 53.1,14.879C53.1,14.879 53.936,17.355 53.936,17.355C53.936,17.355 54.774,20.093 54.774,20.093C54.774,20.093 55.614,23.068 55.614,23.068C55.614,23.068 56.455,26.25 56.455,26.25C56.455,26.25 57.296,29.612 57.296,29.612C57.296,29.612 58.138,33.123 58.138,33.123C58.138,33.123 58.98,36.755 58.98,36.755C58.98,36.755 59.822,40.478 59.822,40.478C59.822,40.478 60.665,44.263 60.665,44.263C60.665,44.263 61.508,48.083 61.508,48.083C61.508,48.083 62.351,51.91 62.351,51.91C62.351,51.911 63.194,55.719 63.194,55.719C63.194,55.72 64.037,59.487 64.037,59.487C64.038,59.488 64.881,63.192 64.881,63.192C64.881,63.193 65.725,66.813 65.725,66.813C65.725,66.815 66.569,70.334 66.569,70.334C66.569,70.336 67.413,73.738 67.413,73.738C67.414,73.741 68.258,77.014 68.258,77.014C68.259,77.018 69.103,80.15 69.103,80.15C69.104,80.154 69.948,83.138 69.948,83.138C69.949,83.143 70.794,85.971 70.794,85.971C70.796,85.976 71.64,88.646 71.64,88.646C71.642,88.652 72.487,91.159 72.487,91.159C72.49,91.166 73.335,93.511 73.335,93.511C73.338,93.518 74.184,95.702 74.184,95.702C74.187,95.709 75.034,97.734 75.034,97.734C75.038,97.743 75.885,99.612 75.885,99.612C75.89,99.622 76.738,101.341 76.738,101.341C76.743,101.351 77.592,102.926 77.592,102.926C77.599,102.937 78.449,104.373 78.449,104.373C78.456,104.385 79.308,105.69 79.308,105.69C79.317,105.702 80.169,106.883 80.169,106.883L81.033,107.96L81.899,108.928L82.768,109.795L83.64,110.568L84.513,111.254L85.387,111.86L86.261,112.393L87.136,112.86L88.009,113.267L88.882,113.62C88.896,113.625 89.752,113.925 89.752,113.925C89.765,113.929 90.62,114.187 90.62,114.187C90.633,114.19 91.486,114.412 91.486,114.412C91.497,114.414 92.35,114.604 92.35,114.604C92.36,114.606 93.212,114.767 93.212,114.767C93.22,114.768 94.071,114.905 94.071,114.905C94.079,114.906 94.928,115.022 94.928,115.022C94.935,115.023 95.784,115.121 95.784,115.121C95.79,115.121 96.637,115.203 96.637,115.203C96.642,115.203 97.49,115.272 97.49,115.272C97.494,115.272 98.341,115.329 98.341,115.329C98.344,115.33 99.19,115.377 99.19,115.377C99.193,115.377 100.039,115.416 100.039,115.416C100.041,115.417 100.887,115.449 100.887,115.449C100.889,115.449 101.734,115.476 101.734,115.476C101.735,115.476 102.58,115.497 102.58,115.497C102.582,115.498 103.426,115.515 103.426,115.515C103.427,115.515 104.271,115.53 104.271,115.53L105.961,115.551L107.649,115.565L109.336,115.573L111.867,115.581L116.083,115.586L128.885,115.588L128.885,114.312L117.769,114.311L113.555,114.308L111.027,114.303L108.499,114.294L106.815,114.283L105.132,114.266C105.132,114.266 104.291,114.254 104.291,114.254C104.291,114.254 103.45,114.24 103.45,114.24C103.45,114.24 102.61,114.222 102.61,114.222C102.61,114.222 101.77,114.201 101.77,114.201C101.77,114.201 100.931,114.174 100.931,114.174C100.931,114.174 100.093,114.142 100.093,114.142C100.093,114.142 99.256,114.103 99.256,114.103C99.256,114.103 98.419,114.056 98.419,114.056C98.419,114.056 97.584,114 97.584,114C97.584,114 96.75,113.932 96.75,113.932C96.75,113.932 95.918,113.852 95.918,113.852C95.918,113.852 95.087,113.757 95.087,113.757C95.087,113.757 94.259,113.644 94.259,113.644C94.259,113.644 93.432,113.511 93.432,113.511C93.432,113.511 92.607,113.354 92.607,113.354C92.607,113.354 91.785,113.172 91.785,113.172C91.785,113.172 90.965,112.959 90.965,112.959C90.965,112.959 90.148,112.712 90.148,112.712C90.148,112.712 89.332,112.426 89.332,112.426C89.332,112.426 88.518,112.097 88.518,112.097C88.518,112.097 87.706,111.718 87.706,111.718C87.706,111.718 86.894,111.285 86.894,111.285C86.894,111.285 86.083,110.791 86.083,110.791C86.083,110.791 85.271,110.227 85.271,110.227C85.271,110.227 84.458,109.588 84.458,109.588C84.458,109.588 83.643,108.865 83.643,108.865C83.643,108.865 82.826,108.05 82.826,108.05C82.826,108.05 82.006,107.135 82.006,107.135C82.006,107.135 81.184,106.11 81.184,106.11C81.184,106.11 80.36,104.967 80.36,104.967C80.36,104.967 79.532,103.699 79.532,103.699C79.532,103.699 78.703,102.298 78.703,102.298C78.703,102.298 77.871,100.756 77.871,100.756C77.871,100.756 77.038,99.067 77.038,99.067C77.038,99.067 76.203,97.225 76.203,97.225C76.203,97.225 75.367,95.225 75.367,95.225C75.367,95.225 74.53,93.064 74.53,93.064C74.53,93.064 73.692,90.739 73.692,90.739C73.692,90.739 72.853,88.25 72.853,88.25C72.853,88.25 72.013,85.597 72.013,85.597C72.013,85.597 71.173,82.782 71.173,82.782C71.173,82.782 70.332,79.811 70.332,79.811C70.332,79.811 69.491,76.689 69.491,76.689C69.491,76.689 68.65,73.426 68.65,73.426C68.65,73.426 67.808,70.031 67.808,70.031C67.808,70.031 66.966,66.52 66.966,66.52C66.966,66.52 66.124,62.905 66.124,62.905C66.124,62.905 65.282,59.206 65.282,59.206C65.282,59.206 64.439,55.442 64.439,55.442C64.439,55.442 63.596,51.635 63.596,51.635C63.596,51.635 62.753,47.808 62.753,47.808C62.753,47.808 61.91,43.987 61.91,43.987C61.91,43.987 61.067,40.199 61.067,40.199C61.066,40.198 60.223,36.47 60.223,36.47C60.223,36.469 59.379,32.83 59.379,32.83C59.379,32.828 58.535,29.308 58.535,29.308C58.534,29.305 57.69,25.932 57.69,25.932C57.689,25.928 56.845,22.732 56.845,22.732C56.843,22.726 55.998,19.733 55.998,19.733C55.996,19.727 55.15,16.964 55.15,16.964C55.148,16.955 54.301,14.448 54.301,14.448C54.296,14.437 53.448,12.206 53.448,12.206L52.589,10.258L51.719,8.617L50.829,7.293L49.898,6.294L48.891,5.641L47.799,5.404L46.707,5.641L45.7,6.294L44.769,7.293L43.879,8.617L43.01,10.258L42.151,12.206L41.298,14.448C41.294,14.459 40.448,16.964 40.448,16.964C40.445,16.973 39.6,19.733 39.6,19.733C39.598,19.74 38.754,22.732 38.754,22.732C38.753,22.737 37.908,25.932 37.908,25.932C37.907,25.936 37.064,29.308 37.064,29.308C37.063,29.311 36.219,32.83 36.219,32.83C36.219,32.833 35.375,36.47 35.375,36.47C35.375,36.472 34.532,40.199 34.532,40.199C34.532,40.2 33.688,43.987 33.688,43.987C33.688,43.988 32.845,47.808 32.845,47.808C32.845,47.809 32.002,51.635 32.002,51.635C32.002,51.635 31.16,55.442 31.16,55.442C31.16,55.442 30.317,59.206 30.317,59.206C30.317,59.206 29.475,62.905 29.475,62.905C29.475,62.905 28.632,66.52 28.632,66.52C28.632,66.52 27.79,70.031 27.79,70.031C27.79,70.031 26.949,73.426 26.949,73.426C26.949,73.426 26.107,76.689 26.107,76.689C26.107,76.689 25.266,79.811 25.266,79.811C25.266,79.811 24.426,82.782 24.426,82.782C24.426,82.782 23.585,85.597 23.585,85.597C23.585,85.597 22.746,88.25 22.746,88.25C22.746,88.25 21.907,90.739 21.907,90.739C21.907,90.739 21.069,93.064 21.069,93.064C21.069,93.064 20.231,95.225 20.231,95.225C20.231,95.225 19.395,97.225 19.395,97.225C19.395,97.225 18.56,99.067 18.56,99.067C18.56,99.067 17.727,100.756 17.727,100.756C17.727,100.756 16.896,102.298 16.896,102.298C16.896,102.298 16.066,103.699 16.066,103.699C16.066,103.699 15.239,104.967 15.239,104.967C15.239,104.967 14.414,106.11 14.414,106.11C14.414,106.11 13.592,107.135 13.592,107.135C13.592,107.135 12.773,108.05 12.773,108.05C12.773,108.05 11.956,108.865 11.956,108.865C11.956,108.865 11.141,109.588 11.141,109.588C11.141,109.588 10.328,110.227 10.328,110.227C10.328,110.227 9.516,110.791 9.516,110.791C9.516,110.791 8.704,111.285 8.704,111.285C8.704,111.285 7.893,111.718 7.893,111.718C7.893,111.718 7.08,112.097 7.08,112.097C7.08,112.097 6.267,112.426 6.267,112.426C6.267,112.426 5.451,112.712 5.451,112.712C5.451,112.712 4.633,112.959 4.633,112.959C4.633,112.959 3.813,113.172 3.813,113.172C3.813,113.172 2.991,113.354 2.991,113.354C2.991,113.354 2.167,113.511 2.167,113.511C2.167,113.511 -0.66,113.644 -0.66,113.644L-0.838,114.869Z" style="fill:rgb(0,0,255);"/>
    <path d="M-0.841,114.864L35.698,114.57L37.372,114.558C37.372,114.558 38.209,114.549 38.209,114.549C38.21,114.549 39.047,114.538 39.047,114.538C39.049,114.538 39.886,114.524 39.886,114.524C39.887,114.524 40.725,114.506 40.725,114.506C40.727,114.506 41.565,114.483 41.565,114.483C41.567,114.483 42.406,114.454 42.406,114.454C42.409,114.454 43.248,114.419 43.248,114.419C43.251,114.419 44.091,114.375 44.091,114.375C44.095,114.375 44.935,114.321 44.935,114.321C44.94,114.32 45.781,114.254 45.781,114.254C45.787,114.253 46.629,114.172 46.629,114.172C46.636,114.171 47.479,114.072 47.479,114.072C47.487,114.071 48.331,113.952 48.331,113.952C48.34,113.95 49.186,113.806 49.186,113.806C49.196,113.804 50.044,113.631 50.044,113.631C50.055,113.628 50.904,113.421 50.904,113.421C50.917,113.418 51.767,113.172 51.767,113.172C51.781,113.168 52.633,112.878 52.633,112.878L53.501,112.531L54.37,112.126L55.24,111.654L56.111,111.108L56.98,110.482L57.848,109.766L58.713,108.953L59.575,108.036L60.435,107.007L61.291,105.858L62.144,104.582C62.152,104.569 62.995,103.173 62.995,103.173C63.001,103.161 63.843,101.624 63.843,101.624C63.849,101.613 64.69,99.931 64.69,99.931C64.694,99.921 65.534,98.09 65.534,98.09C65.538,98.081 66.377,96.099 66.377,96.099C66.38,96.091 67.219,93.958 67.219,93.958C67.221,93.951 68.059,91.669 68.059,91.669C68.062,91.663 68.899,89.237 68.899,89.237C68.901,89.232 69.738,86.668 69.738,86.668C69.74,86.663 70.577,83.972 70.577,83.972C70.578,83.968 71.415,81.161 71.415,81.161C71.416,81.158 72.253,78.251 72.253,78.251C72.253,78.249 73.09,75.259 73.09,75.259C73.09,75.257 73.927,72.206 73.927,72.206C73.927,72.205 74.763,69.116 74.763,69.116C74.763,69.116 75.599,66.014 75.599,66.014C75.599,66.014 76.435,62.927 76.435,62.927C76.435,62.927 77.27,59.885 77.27,59.885C77.27,59.885 78.105,56.919 78.105,56.919C78.105,56.919 78.939,54.06 78.939,54.06C78.939,54.06 79.772,51.339 79.772,51.339C79.772,51.339 80.604,48.789 80.604,48.789C80.604,48.789 81.434,46.44 81.434,46.44C81.434,46.44 82.261,44.323 82.261,44.323C82.261,44.323 83.083,42.466 83.083,42.466C83.083,42.466 83.897,40.895 83.897,40.895C83.897,40.895 84.696,39.638 84.696,39.638C84.696,39.638 85.466,38.715 85.466,38.715C85.466,38.715 86.181,38.137 86.181,38.137C86.181,38.137 86.817,37.878 86.817,37.878C86.817,37.878 87.407,37.878 87.407,37.878C87.407,37.878 88.043,38.137 88.043,38.137C88.043,38.137 88.758,38.715 88.758,38.715C88.758,38.715 89.528,39.638 89.528,39.638C89.527,39.638 90.326,40.895 90.326,40.895C90.326,40.895 91.141,42.466 91.141,42.466C91.141,42.466 91.963,44.323 91.963,44.323C91.963,44.323 92.79,46.44 92.79,46.44C92.79,46.44 93.62,48.789 93.62,48.789C93.62,48.789 94.452,51.339 94.452,51.339C94.452,51.339 95.285,54.06 95.285,54.06C95.285,54.06 96.119,56.919 96.119,56.919C96.119,56.919 96.954,59.885 96.954,59.885C96.954,59.885 97.789,62.927 97.789,62.927C97.789,62.927 98.624,66.014 98.624,66.014C98.624,66.014 99.461,69.116 99.461,69.116C99.461,69.116 100.297,72.206 100.297,72.206C100.297,72.207 101.134,75.259 101.134,75.259C101.134,75.261 101.971,78.251 101.971,78.251C101.972,78.253 102.808,81.161 102.808,81.161C102.809,81.164 103.647,83.972 103.647,83.972C103.648,83.975 104.485,86.668 104.485,86.668C104.486,86.672 105.324,89.237 105.324,89.237C105.326,89.242 106.164,91.669 106.164,91.669C106.166,91.675 107.005,93.958 107.005,93.958C107.007,93.964 107.847,96.099 107.847,96.099C107.85,96.106 108.69,98.09 108.69,98.09C108.693,98.098 109.534,99.931 109.534,99.931C109.539,99.94 110.38,101.624 110.38,101.624C110.386,101.634 111.229,103.173 111.229,103.173C111.235,103.184 112.079,104.582 112.079,104.582C112.087,104.594 112.933,105.858 112.933,105.858L113.789,107.007L114.648,108.036L115.511,108.953L116.376,109.766L117.244,110.482L118.113,111.108L118.983,111.654L119.854,112.126L120.723,112.531L121.591,112.878L122.456,113.172C122.471,113.177 123.319,113.421 123.319,113.421C123.332,113.425 124.18,113.631 124.18,113.631C124.191,113.633 125.037,113.806 125.037,113.806C125.047,113.808 125.892,113.952 125.892,113.952C125.901,113.953 127.585,114.222 127.585,114.222L127.761,112.959L126.086,112.691C126.086,112.691 125.268,112.552 125.268,112.552C125.268,112.552 124.454,112.385 124.454,112.385C124.454,112.385 123.642,112.188 123.642,112.188C123.642,112.188 122.833,111.954 122.833,111.954C122.833,111.954 122.026,111.68 122.026,111.68C122.026,111.68 121.222,111.359 121.222,111.359C121.222,111.359 120.419,110.984 120.419,110.984C120.419,110.984 119.617,110.549 119.617,110.549C119.617,110.549 118.816,110.047 118.816,110.047C118.816,110.047 118.013,109.468 118.013,109.468C118.013,109.468 117.208,108.804 117.208,108.804C117.208,108.804 116.402,108.047 116.402,108.047C116.402,108.047 115.592,107.186 115.592,107.186C115.592,107.186 114.779,106.212 114.779,106.212C114.779,106.212 113.963,105.118 113.963,105.118C113.963,105.118 113.144,103.894 113.144,103.894C113.144,103.894 112.323,102.533 112.323,102.533C112.323,102.533 111.499,101.028 111.499,101.028C111.499,101.028 110.673,99.376 110.673,99.376C110.673,99.376 109.846,97.571 109.846,97.571C109.846,97.571 109.016,95.613 109.016,95.613C109.016,95.613 108.186,93.501 108.186,93.501C108.186,93.501 107.355,91.238 107.355,91.238C107.355,91.238 106.522,88.827 106.522,88.827C106.522,88.827 105.689,86.277 105.689,86.277C105.689,86.277 104.856,83.597 104.856,83.597C104.856,83.597 104.022,80.8 104.022,80.8C104.022,80.8 103.187,77.9 103.187,77.9C103.187,77.9 102.352,74.916 102.352,74.916C102.352,74.916 101.517,71.869 101.517,71.869C101.517,71.869 100.681,68.781 100.681,68.781C100.681,68.781 99.845,65.679 99.845,65.679C99.845,65.678 99.009,62.589 99.009,62.589C99.008,62.588 98.172,59.541 98.172,59.541C98.171,59.539 97.334,56.565 97.334,56.565C97.333,56.562 96.496,53.692 96.496,53.692C96.495,53.687 95.657,50.952 95.657,50.952C95.655,50.946 94.817,48.376 94.817,48.376C94.814,48.368 93.975,45.992 93.975,45.992C93.971,45.983 93.13,43.829 93.13,43.829C93.124,43.816 92.28,41.91 92.28,41.91L91.422,40.255L90.549,38.88L89.646,37.798L88.689,37.024L87.653,36.603L86.571,36.603L85.535,37.024L84.577,37.798L83.675,38.88L82.802,40.255L81.944,41.91L81.094,43.829C81.089,43.842 80.249,45.992 80.249,45.992C80.245,46.002 79.407,48.376 79.407,48.376C79.404,48.383 78.566,50.952 78.566,50.952C78.565,50.957 77.727,53.692 77.727,53.692C77.726,53.696 76.889,56.565 76.889,56.565C76.889,56.568 76.052,59.541 76.052,59.541C76.051,59.543 75.215,62.589 75.215,62.589C75.215,62.59 74.379,65.679 74.379,65.679C74.378,65.679 73.542,68.781 73.542,68.781C73.542,68.781 72.707,71.869 72.707,71.869C72.707,71.869 71.871,74.916 71.871,74.916C71.871,74.916 71.036,77.9 71.036,77.9C71.036,77.9 70.202,80.8 70.202,80.8C70.202,80.8 69.368,83.597 69.368,83.597C69.368,83.597 68.534,86.277 68.534,86.277C68.534,86.277 67.701,88.827 67.701,88.827C67.701,88.827 66.869,91.238 66.869,91.238C66.869,91.238 66.037,93.501 66.037,93.501C66.037,93.501 65.207,95.613 65.207,95.613C65.207,95.613 64.378,97.571 64.378,97.571C64.378,97.571 63.55,99.376 63.55,99.376C63.55,99.376 62.724,101.028 62.724,101.028C62.724,101.028 61.901,102.533 61.901,102.533C61.901,102.533 61.079,103.894 61.079,103.894C61.079,103.894 60.26,105.118 60.26,105.118C60.26,105.118 59.444,106.212 59.444,106.212C59.444,106.212 58.632,107.186 58.632,107.186C58.632,107.186 57.822,108.047 57.822,108.047C57.822,108.047 57.015,108.804 57.015,108.804C57.015,108.804 56.211,109.468 56.211,109.468C56.211,109.468 55.408,110.047 55.408,110.047C55.408,110.047 54.606,110.549 54.606,110.549C54.606,110.549 53.804,110.984 53.804,110.984C53.804,110.984 53.002,111.359 53.002,111.359C53.002,111.359 52.197,111.68 52.197,111.68C52.197,111.68 51.391,111.954 51.391,111.954C51.391,111.954 50.582,112.188 50.582,112.188C50.582,112.188 49.77,112.385 49.77,112.385C49.77,112.385 48.955,112.552 48.955,112.552C48.955,112.552 48.138,112.691 48.138,112.691C48.138,112.691 47.318,112.807 47.318,112.807C47.318,112.807 46.496,112.904 46.496,112.904C46.496,112.904 45.672,112.983 45.672,112.983C45.672,112.983 44.846,113.048 44.846,113.048C44.846,113.048 44.018,113.102 44.018,113.102C44.018,113.102 43.189,113.145 43.189,113.145C43.189,113.145 42.358,113.18 42.358,113.18C42.358,113.18 41.527,113.208 41.527,113.208C41.527,113.208 40.695,113.23 40.695,113.23C40.695,113.23 39.862,113.248 39.862,113.248C39.862,113.248 39.028,113.263 39.028,113.263C39.028,113.263 38.194,113.274 38.194,113.274L36.525,113.29C36.525,113.29 35.689,113.295 35.689,113.295C35.688,113.295 -0.851,113.588 -0.851,113.588L-0.841,114.864Z" style="fill:rgb(255,0,0);"/>
</svg>
